<svg xmlns="http://www.w3.org/2000/svg" xmlns:xlink="http://www.w3.org/1999/xlink" version="1.1"
	width="3187.5"
	height="1125" viewBox="0 0 3187.5 1125">

	<g transform="scale(9.375) translate(10, 10)">
		<defs id="SvgjsDefs2562"></defs>
		<g id="SvgjsG2563" featureKey="symbolFeature-0"
			transform="matrix(2.0833333333333335,0,0,2.0833333333333335,0,0)" fill="#fd7014">
			<g xmlns="http://www.w3.org/2000/svg">
				<path
					d="M36,10.5L23.7,22.8c-0.4,0.4-0.4,1.1,0,1.5c0.4,0.4,1.1,0.4,1.5,0L37.5,12l3.7,0.5L48,5.7L43,5l-0.7-5l-6.9,6.9L36,10.5z"></path>
				<path
					d="M42,14.5c1.5,2.8,2.4,6,2.4,9.5c0,11.2-9.1,20.3-20.3,20.3C12.8,44.3,3.7,35.2,3.7,24C3.7,12.8,12.8,3.7,24,3.7   c3.4,0,6.6,0.8,9.5,2.3l2.7-2.7C32.6,1.2,28.4,0,24,0C10.8,0,0,10.8,0,24c0,13.2,10.8,24,24,24c13.2,0,24-10.8,24-24   c0-4.4-1.2-8.6-3.3-12.2L42,14.5z"></path>
				<path
					d="M33.4,10.3c-2.7-1.9-5.9-2.9-9.4-2.9C14.8,7.4,7.4,14.8,7.4,24c0,9.2,7.4,16.6,16.6,16.6S40.6,33.2,40.6,24   c0-3.5-1.1-6.7-2.9-9.4L35,17.3c1.2,2,1.9,4.3,1.9,6.7c0,7.1-5.8,12.9-12.9,12.9c-7.1,0-12.9-5.8-12.9-12.9   c0-7.1,5.8-12.9,12.9-12.9c2.5,0,4.8,0.7,6.7,1.9L33.4,10.3z"></path>
				<path
					d="M24,18.5c0.4,0,0.8,0,1.1,0.1l2.9-2.9c-1.2-0.6-2.6-0.9-4-0.9c-5.1,0-9.2,4.1-9.2,9.2s4.1,9.2,9.2,9.2s9.2-4.1,9.2-9.2   c0-1.4-0.3-2.8-0.9-4l-2.9,2.9c0,0,0,0,0,0c0.1,0.4,0.1,0.7,0.1,1.1c0,3.1-2.5,5.5-5.5,5.5c-3.1,0-5.5-2.5-5.5-5.5   C18.5,20.9,20.9,18.5,24,18.5z"></path>
			</g>
		</g>
		<g id="SvgjsG2564" featureKey="nameFeature-0"
			transform="matrix(2.33203078226545,0,0,2.33203078226545,116.7661959085912,-9.414027715283439)"
			fill="#fff">
			<path
				d="M22.246 27.344 l1.9531 0 l-0.25391 1.1914 l-10.078 0 l-2.6563 11.543 l-9.8242 0 l2.9688 -12.734 l-1.9922 0 l3.8086 -16.484 l20.742 0 l-1.7188 7.4023 l-10.918 0 l-0.68359 2.8711 l10.059 0 z M27.1875 27.578 l-2.0508 0 l1.6992 -7.5586 l9.3164 0 l-1.6992 7.5586 l2.0703 0 l-2.7539 12.422 l-9.3164 0 z M38.555 10.469000000000001 l-1.6211 7.0703 l-9.6484 0 l1.6211 -7.0703 l9.6484 0 z M41.40624375 27.578 l-2.1289 0 l0.625 -2.8906 l-2.3047 0 l1.4844 -6.4844 l2.3633 0 l1.3086 -5.7227 l9.2773 0 l-1.3086 5.7227 l5.8203 0 l-1.4844 6.4844 l-5.8789 0 c-0.17578 0.99609 -0.39063 1.8945 -0.625 2.8906 l2.1094 0 c-0.39063 1.6797 -0.80078 3.3398 -1.1523 5.0391 c-0.72266 3.3008 1.875 3.0273 2.8711 0.99609 l2.7148 0 l-1.5234 6.7578 c-2.7539 0.23438 -7.2656 0.58594 -10.332 -0.039063 c-3.5547 -0.76172 -3.8281 -4.1406 -3.1055 -7.3438 z M77.34334375 26.719 l5.1367 13.359 l-11.191 0 l-2.4023 -6.7578 c-1.8164 2.168 -3.8281 4.5117 -5.4883 6.7578 l-10.957 0 l11.387 -13.359 l-1.7578 0 l1.2109 -1.4063 c-2.0313 -4.7461 -3.5938 -9.7852 -5.5664 -14.551 l11.211 0 l2.207 6.25 c1.6016 -2.1094 3.4375 -4.1016 5.0977 -6.25 l10.918 0 l-12.207 14.316 l0.68359 1.6406 l1.7188 0 z"></path>
		</g>
	</g>
</svg>
	